<mxfile host="app.diagrams.net" modified="2021-06-29T06:56:24.206Z" agent="5.0 (Windows NT 10.0; Win64; x64) AppleWebKit/537.36 (KHTML, like Gecko) Chrome/91.0.4472.114 Safari/537.36" etag="lntIxqX8P0ptUl2nGErF" version="14.8.1" type="github">
  <diagram id="nLtY8Hj69PPEsJg6S1ez" name="第 1 页">
    <mxGraphModel dx="1422" dy="802" grid="1" gridSize="10" guides="1" tooltips="1" connect="1" arrows="1" fold="1" page="1" pageScale="1" pageWidth="850" pageHeight="1100" math="0" shadow="0">
      <root>
        <mxCell id="0" />
        <mxCell id="1" parent="0" />
        <mxCell id="3uXViX_sLQ8wCvfZ38iT-5" value="HTTP request" style="edgeStyle=orthogonalEdgeStyle;rounded=0;orthogonalLoop=1;jettySize=auto;html=1;entryX=0;entryY=0.442;entryDx=0;entryDy=0;entryPerimeter=0;strokeWidth=2;" edge="1" parent="1" source="3uXViX_sLQ8wCvfZ38iT-1" target="3uXViX_sLQ8wCvfZ38iT-3">
          <mxGeometry x="-0.0667" y="13" relative="1" as="geometry">
            <Array as="points">
              <mxPoint x="650" y="403" />
              <mxPoint x="650" y="403" />
            </Array>
            <mxPoint as="offset" />
          </mxGeometry>
        </mxCell>
        <mxCell id="3uXViX_sLQ8wCvfZ38iT-1" value="Envoy" style="rounded=1;whiteSpace=wrap;html=1;" vertex="1" parent="1">
          <mxGeometry x="330" y="330" width="240" height="150" as="geometry" />
        </mxCell>
        <mxCell id="3uXViX_sLQ8wCvfZ38iT-2" value="https_listener" style="rounded=0;whiteSpace=wrap;html=1;" vertex="1" parent="1">
          <mxGeometry x="290" y="380" width="80" height="40" as="geometry" />
        </mxCell>
        <mxCell id="3uXViX_sLQ8wCvfZ38iT-3" value="python -m SimpleHTTPServer 8080" style="rounded=1;whiteSpace=wrap;html=1;" vertex="1" parent="1">
          <mxGeometry x="720" y="350" width="190" height="120" as="geometry" />
        </mxCell>
        <mxCell id="3uXViX_sLQ8wCvfZ38iT-4" value="https request" style="endArrow=classic;html=1;entryX=0;entryY=0.5;entryDx=0;entryDy=0;strokeWidth=2;" edge="1" parent="1" target="3uXViX_sLQ8wCvfZ38iT-2">
          <mxGeometry x="-0.1304" y="20" width="50" height="50" relative="1" as="geometry">
            <mxPoint x="60" y="400" as="sourcePoint" />
            <mxPoint x="190" y="380" as="targetPoint" />
            <mxPoint as="offset" />
          </mxGeometry>
        </mxCell>
      </root>
    </mxGraphModel>
  </diagram>
</mxfile>
